<?xml version="1.0" encoding="utf-8"?>
<!-- Generator: Adobe Illustrator 24.2.0, SVG Export Plug-In . SVG Version: 6.00 Build 0)  -->
<svg version="1.1" id="Layer_1" xmlns="http://www.w3.org/2000/svg" xmlns:xlink="http://www.w3.org/1999/xlink" x="0px" y="0px"
	 viewBox="0 0 32.16 28.99" style="enable-background:new 0 0 32.16 28.99;" xml:space="preserve">
<style type="text/css">
	.st0{fill:#39B54A;}
</style>
<g>
	<path class="st0" d="M23.83,7.62c1.76-0.8,3.57-1.2,5.38-1.17c0.13,0,0.25-0.1,0.28-0.24c0.03-0.15-0.04-0.29-0.17-0.35
		c-1.19-0.49-3.07-0.91-5.3-0.07c-3.08,1.17-4.96,4.09-5.62,5.29l-0.77,1.39l1.1-1.15C20.29,9.7,22.01,8.46,23.83,7.62z"/>
	<path class="st0" d="M5.68,2.93c0.69,0.23,1.17,0.6,1.43,0.83c3.53,2.97,3.76,16.53,3.69,22.48c-0.01,0.73,0.34,1.35,0.87,1.54
		c0.08,0.03,0.17,0.05,0.25,0.05c0.34,0.02,0.68-0.15,0.94-0.49c1.99-2.59,5.65-6.79,10.04-8.34c5.52-1.95,7.33-1.66,7.83-1.71
		c0.11-0.01,0.21-0.09,0.25-0.2c0.05-0.13,0.03-0.28-0.06-0.39c-0.83-0.97-3.92-4.03-8.76-2.45c-4.17,1.36-6.91,5.15-8.03,6.97
		c0.43-2.9,1.39-10.52,0.06-13.27c-1.57-3.26-6.47-6.51-9.21-6.11C4.3,1.94,3.67,2.31,3.13,2.91C4.19,2.61,5.06,2.72,5.68,2.93z"/>
	<path class="st0" d="M2.21,8.79c0.12-0.02,0.21-0.12,0.22-0.25c0.12-1.09,1.35-4.22,2.81-5.07c0.24-0.15,0.48-0.21,0.71-0.21
		C5.22,2.93,4.18,2.74,2.88,3.21C2.69,3.45,2.52,3.72,2.36,4.02c-0.83,1.56-1,3.47-0.44,4.63C1.99,8.75,2.1,8.81,2.21,8.79z"/>
</g>
<path class="st0" d="M7.4,74.55c-0.02-0.02-0.07-0.05-0.12-0.08l0.1,0.07C7.38,74.55,7.39,74.55,7.4,74.55z"/>
<path class="st0" d="M8.75,75.17c-0.02,0-0.08-0.01-0.15-0.04c0.01,0.01,0.02,0.01,0.03,0.02c0.02,0,0.05,0.01,0.09,0.02L8.75,75.17
	L8.75,75.17z"/>
</svg>
