<?xml version="1.0" encoding="utf-8"?>
<!-- Generator: Adobe Illustrator 24.2.0, SVG Export Plug-In . SVG Version: 6.00 Build 0)  -->
<svg version="1.1" id="Layer_1" xmlns="http://www.w3.org/2000/svg" xmlns:xlink="http://www.w3.org/1999/xlink" x="0px" y="0px"
	 viewBox="0 0 186.98 99.55" style="enable-background:new 0 0 186.98 99.55;" xml:space="preserve">
<style type="text/css">
	.st0{fill:#F15A29;}
	.st1{fill:#F98031;}
	.st2{font-family:'AvenirNext-Regular';}
	.st3{font-size:9.6098px;}
	.st4{fill:#39B54A;}
</style>
<g>
	<path class="st0" d="M459.89,56.63c-0.14-0.92-1.1-1.01-2.02-0.89c-0.04-1.06-0.29-2.07-0.81-2.94c-1.14-1.9-3.18-1.96-4.78-1.61
		c-1.96,0.43-4.25,1.47-5.6,3.66c-0.85,1.37-1.27,3.42-0.42,4.98c0.06,0.11,0.12,0.17,0.18,0.26c-2.49,1.67-4.21,4.72-6.56,6.67
		c-0.41,0.34-0.94,0.68-1.16,0.81c-0.3,0.18-0.61,0.33-0.91,0.49c-0.04,0.02-0.05,0.03-0.09,0.05c-1.57,0.59-3.14,1.18-4.7,1.74
		c-0.78,0.28-3.36,1.39-3.11,3.08c0.25,1.67,3.2,0.64,3.77,0.46c1.08-0.35,2.16-0.74,3.24-1.15c1.13-0.4,2.26-0.8,3.39-1.2
		c1.03-0.37,2.06-0.73,3.09-1.1c0.41-0.15,0.83-0.29,1.24-0.44c0.35,0.4,1.62,1.72,1.74,1.8c0.95,0.71,2.02,0.88,3.08,0.84
		c2.44-0.11,5.47-1.39,7.12-4.08c0.29-0.47,0.52-0.98,0.71-1.52c0.03-0.05,0.06-0.09,0.09-0.14c0.13-0.24,0.26-0.49,0.36-0.77
		c0.3-0.78,0.55-1.67,0.63-2.56c0.01-0.16,0.01-0.32,0.01-0.49c0.04-0.13,0.12-0.22,0.14-0.36c0.1-0.93-0.05-1.85-0.51-2.55
		c-0.09-0.14-0.24-0.2-0.36-0.31C458.7,58.83,460.08,57.87,459.89,56.63z M444.56,69.36c0,0,0.02,0.03,0.03,0.05
		C444.56,69.41,444.54,69.39,444.56,69.36z"/>
	<g>
		<path class="st0" d="M462.73,55.72c-0.45-1.57-2.41-1.53-3.74-1.39c0.57,0.17,1.14,0.33,1.71,0.5c-0.14-2.22-1.19-4.32-3.45-4.98
			c-2.2-0.64-4.75-0.07-6.85,0.68c-2.29,0.82-4.58,2.08-6.05,4.08c-1.26,1.71-2.13,4.49-0.77,6.39c0.19-0.35,0.39-0.7,0.58-1.05
			c-1.64,1.15-2.93,2.69-4.22,4.2c-0.57,0.67-1.13,1.35-1.76,1.95c-0.66,0.63-1.42,0.92-2.13,1.45c0.95-0.41,1.16-0.52,0.65-0.32
			c-0.21,0.08-0.43,0.16-0.64,0.24c-0.57,0.21-1.14,0.43-1.71,0.64c-0.92,0.34-1.85,0.64-2.75,1.02c-1.45,0.6-3.11,1.49-4.04,2.81
			c-0.83,1.18-0.7,2.7,0.81,3.18c1.55,0.49,3.38,0.02,4.9-0.41c3.96-1.13,7.85-2.71,11.71-4.12c-1,0.02-2,0.05-3,0.07
			c1.5,1.7,2.9,2.83,5.31,2.9c2.87,0.08,5.93-0.84,8.35-2.36c2.37-1.49,3.74-3.46,4.84-5.98c0.53-1.22,0.66-2.54,0.87-3.8
			c0.19-1.13-0.14-2.53-1.07-3.25c-0.3,0.56-0.6,1.11-0.9,1.67C461.01,59.01,462.83,57.71,462.73,55.72
			c-0.07-1.29-5.77-0.08-5.67,1.82c0.04,0.73-0.58,1.03-1.13,1.31c-0.43,0.22-1.61,1.12-0.9,1.67c0.63,0.49,0.75,1.52,0.68,2.27
			c-0.08,0.84-0.25,1.78-0.5,2.6c-0.48,1.63-1.32,3.49-2.68,4.57c-0.25,0.2-0.5,0.38-0.79,0.52c-0.33,0.17-0.11,0.05-0.32,0.12
			c-0.02,0.01-0.34,0.07-0.22,0.06c-0.31,0.02-0.58,0.06-0.9,0.01c-1.28-0.21-2.19-1.45-3-2.36c-0.55-0.62-2.4-0.15-3,0.07
			c-3.64,1.32-7.28,2.71-10.97,3.89c-0.12,0.04-0.26,0.07-0.38,0.12c-0.24,0.07-0.23,0.07,0.01,0.01c0.26-0.06,0.24-0.06-0.04,0.01
			c-0.27,0.05-0.31,0.06-0.11,0.03s0.16-0.03-0.12,0c0,0.01,0.26-0.04,0.27-0.01c-0.12-0.33-0.33-0.51-0.11-0.95
			c0.09-0.18,0.23-0.28,0.38-0.41c-0.26,0.22,0.71-0.38,0.3-0.18c-0.41,0.2,0.8-0.33,0.07-0.03c-0.61,0.25,0.7-0.25,0.85-0.3
			c0.93-0.34,1.85-0.68,2.78-1.03c1.65-0.62,3.18-1.32,4.59-2.39c2.62-1.98,4.19-5.03,6.88-6.92c0.15-0.11,0.8-0.74,0.58-1.05
			c-1.7-2.37,0.14-5.55,2.28-6.59c-0.4,0.19,0.54-0.14,0.01-0.01c0.08-0.02,0.83-0.12,0.46-0.1c0.36-0.02,0.79,0.06,1.18,0.27
			c1.35,0.75,1.74,2.5,1.82,3.91c0.04,0.6,1.39,0.54,1.71,0.5c0.41-0.04,0.46-0.05,0.16-0.02c0.09,0.12,0.14,0.25,0.15,0.4
			C457.5,59.09,463.2,57.35,462.73,55.72z"/>
		<path class="st0" d="M441.73,69.95c-0.02,0.09-0.06,0.24,0,0.33c0,0,0,0,0,0.01c0.06,0.09,0.16,0.22,0.2,0.27
			c0.01,0.01,0.01,0.02,0.02,0.03c-0.07-0.09-0.13-0.17-0.2-0.26l0,0c1.53-0.78,3.06-1.56,4.59-2.34l0,0
			c0.17,0.03,0.34,0.05,0.52,0.08c-0.01,0-0.01,0-0.02-0.01c0.12,0.06,0.25,0.11,0.37,0.17l-0.01-0.01c0.07,0.09,0.13,0.17,0.2,0.26
			v-0.01c0,0.11,0,0.22-0.01,0.33c0-0.01,0-0.01,0.01-0.02c0.07-0.18,0.04-0.34-0.09-0.46c-0.1-0.17-0.25-0.27-0.47-0.3
			c-0.27-0.07-0.55-0.1-0.83-0.08c-0.35-0.01-0.69,0.03-1.03,0.11c-0.26,0.07-0.51,0.14-0.77,0.2c-0.48,0.15-0.94,0.36-1.38,0.61
			c-0.17,0.12-0.35,0.24-0.52,0.36C442.04,69.42,441.85,69.66,441.73,69.95L441.73,69.95c0,0.01,0,0.01,0,0.02s-0.01,0.32-0.01,0.33
			v0.01c0.04,0.1,0.12,0.19,0.2,0.27c0,0,0,0,0.01,0.01c0.12,0.08,0.25,0.13,0.38,0.18h0.01c0,0,0,0,0.01,0
			c0.09,0.01,0.17,0.03,0.26,0.04s0.17,0.03,0.26,0.04c0.21,0,0.42-0.01,0.63-0.01c0.24-0.04,0.48-0.07,0.71-0.11
			c0.26-0.07,0.51-0.14,0.77-0.2c0.37-0.11,0.73-0.26,1.06-0.45c0.21-0.09,0.4-0.2,0.58-0.34c0.17-0.09,0.32-0.22,0.45-0.36
			c0.13-0.09,0.23-0.21,0.29-0.36c0.12-0.15,0.15-0.31,0.11-0.5c-0.07-0.1-0.15-0.2-0.22-0.29c0.07,0.09,0.13,0.17,0.2,0.26
			l-0.01-0.01c0,0.11,0,0.22-0.01,0.33l0,0c0.07-0.18,0.04-0.34-0.09-0.46c-0.1-0.17-0.25-0.27-0.47-0.3
			c-0.27-0.07-0.55-0.1-0.83-0.08c-0.35-0.01-0.69,0.03-1.03,0.11c-0.26,0.07-0.51,0.14-0.77,0.2c-0.48,0.15-0.94,0.36-1.38,0.61
			c-0.17,0.12-0.35,0.24-0.52,0.36C442.04,69.42,441.85,69.66,441.73,69.95z"/>
	</g>
</g>
<path class="st0" d="M535.62-169.22L535.62-169.22c-19.17,0-34.86,15.69-34.86,34.86v19.87c0,19.17,15.69,34.86,34.86,34.86l0,0
	c19.17,0,34.86-15.69,34.86-34.86v-19.87C570.48-153.54,554.79-169.22,535.62-169.22z M540.21-144.24c0.72-1.81,2.85-6.25,6.97-8.43
	c2.98-1.57,5.69-1.33,7.45-0.84c0.16,0.04,0.26,0.21,0.25,0.39c-0.01,0.18-0.13,0.31-0.29,0.33c-2.57,0.28-5.06,1.16-7.41,2.62
	c-2.43,1.5-4.64,3.58-6.56,6.16l-1.05,1.41L540.21-144.24z M518.24-150.67c0.81-1.82,2.05-2.98,3.47-3.29
	c3.82-0.82,11.04,3.35,13.56,7.81c2.19,3.88,1.42,15.26,1.09,19.14c1.3-2.54,4.89-8.5,10.88-10.89c6.69-2.67,11.33,1.37,12.59,2.67
	c0.12,0.12,0.15,0.31,0.1,0.48c-0.05,0.14-0.16,0.24-0.29,0.27c-0.71,0.12-3.15,0.67-10.33,3.11c-6.29,2.14-11.58,8.94-14.18,12.81
	c-0.32,0.48-0.77,0.74-1.24,0.74c-0.11,0-0.23-0.02-0.35-0.05c-0.74-0.21-1.28-1.03-1.33-2.04l0,0c-0.46-8.98-2.18-30.09-8.31-32.18
	c-0.58-0.2-1.15-0.1-1.74,0.29c-2.01,1.36-3.48,5.94-3.57,7.51c-0.01,0.16-0.11,0.29-0.25,0.32c-0.13,0.03-0.26-0.03-0.33-0.15
	C517.13-145.7,517.22-148.39,518.24-150.67z M567.46-113.81c-0.2,0.08-0.42,0.02-0.56-0.17c-0.52-0.68-3.39-4.12-8.4-4.73
	c-4.02-0.49-8.23,1.01-12.51,4.44c-8.86,7.1-12.22,14.78-13.44,18.72c-0.14,0.46-0.47,0.75-0.86,0.75h-0.01
	c-0.39,0-0.72-0.3-0.86-0.78c-1.31-4.61-5.19-15.99-13.01-22.11c-8.09-6.33-12.22-3.11-13.62-1.43c-0.13,0.15-0.32,0.2-0.48,0.12
	c-0.2-0.09-0.32-0.34-0.28-0.6c0.32-2.13,1.93-7.27,9.97-8.92c2.46-0.51,4.89,0.1,7.2,1.8c6.17,4.53,10.38,15.94,11.51,25.24
	c1.45-3.58,7.57-17,18.62-20.74c5.39-1.82,9.65-1.81,12.65,0.04c3.04,1.88,4.08,5.19,4.42,7.64
	C567.85-114.21,567.71-113.91,567.46-113.81z"/>
<path class="st0" d="M-333.79,19.55L-333.79,19.55c-32.47,0-59.04-26.57-59.04-59.04v-33.66c0-32.47,26.57-59.04,59.04-59.04l0,0
	c32.47,0,59.04,26.57,59.04,59.04v33.66C-274.74-7.02-301.31,19.55-333.79,19.55z"/>
<text transform="matrix(1 0 0 1 74.5167 96.6613)" class="st1 st2 st3">Platonic love of nature</text>
<g>
	<path class="st4" d="M37.42,8.29c1.76-0.8,3.57-1.2,5.38-1.17c0.13,0,0.25-0.1,0.28-0.24c0.03-0.15-0.04-0.29-0.17-0.35
		c-1.19-0.49-3.07-0.91-5.3-0.07c-3.08,1.17-4.96,4.09-5.62,5.29l-0.77,1.39l1.1-1.15C33.88,10.37,35.6,9.13,37.42,8.29z"/>
	<path class="st4" d="M19.27,3.6c0.69,0.23,1.17,0.6,1.43,0.83c3.53,2.97,3.76,16.53,3.69,22.48c-0.01,0.73,0.34,1.35,0.87,1.54
		c0.08,0.03,0.17,0.05,0.25,0.05c0.34,0.02,0.68-0.15,0.94-0.49c1.99-2.59,5.65-6.79,10.04-8.34c5.52-1.95,7.33-1.66,7.83-1.71
		c0.11-0.01,0.21-0.09,0.25-0.2c0.05-0.13,0.03-0.28-0.06-0.39c-0.83-0.97-3.92-4.03-8.76-2.45c-4.17,1.36-6.91,5.15-8.03,6.97
		c0.43-2.9,1.39-10.52,0.06-13.27c-1.57-3.26-6.47-6.51-9.21-6.11c-0.68,0.1-1.31,0.47-1.85,1.07C17.78,3.28,18.65,3.39,19.27,3.6z"
		/>
	<path class="st4" d="M15.8,9.46c0.12-0.02,0.21-0.12,0.22-0.25c0.12-1.09,1.35-4.22,2.81-5.07c0.24-0.15,0.48-0.21,0.71-0.21
		c-0.73-0.33-1.77-0.52-3.07-0.05c-0.19,0.24-0.36,0.51-0.52,0.81c-0.83,1.56-1,3.47-0.44,4.63C15.58,9.42,15.69,9.48,15.8,9.46z"/>
	<path class="st4" d="M42.13,50.69c-0.49-0.58-0.99-0.8-1.51-0.68c-0.1,0-0.2,0.03-0.29,0.1s-0.17,0.12-0.25,0.17
		s-0.15,0.14-0.23,0.25c-0.08,0.12-0.14,0.21-0.19,0.29s-0.11,0.18-0.17,0.31c-0.07,0.13-0.12,0.22-0.15,0.29
		c-0.04,0.07-0.09,0.17-0.15,0.31c-0.07,0.14-0.1,0.22-0.1,0.25c-0.31,0.62-0.58,1.29-0.81,2.01c-1.06,1.49-2.2,2.88-3.44,4.14
		c-4.05,4.12-7.9,5.79-11.56,4.99h-0.04H23.2c-0.05-0.02-0.09-0.04-0.12-0.04c-0.18-0.08-0.34-0.13-0.46-0.15
		c-0.13-0.05-0.26-0.1-0.39-0.15c0-0.02-0.02-0.04-0.08-0.04c-0.02-0.02-0.05-0.04-0.08-0.04c-0.02-0.02-0.12-0.1-0.27-0.21
		c-0.15-0.12-0.28-0.19-0.39-0.21l-0.04-0.04c-0.02-0.02-0.12-0.12-0.27-0.27l-0.04-0.03c-0.1-0.1-0.19-0.21-0.27-0.31v-0.04
		c-0.13-0.18-0.21-0.31-0.23-0.39c0-0.02-0.02-0.07-0.06-0.14c-0.04-0.06-0.07-0.11-0.1-0.14c-0.02-0.08-0.04-0.13-0.04-0.15
		c-0.08-0.21-0.18-0.48-0.31-0.81c0-0.02,0-0.05,0-0.08v-0.04c-0.05-0.21-0.09-0.37-0.12-0.5c-0.05-0.31-0.1-0.63-0.15-0.97
		c-0.02-0.15-0.04-0.31-0.04-0.46c0-0.02,0-0.06,0-0.12c0-0.05,0-0.09,0-0.12v-0.04c-0.02-0.44-0.04-0.78-0.04-1.05
		c0.05-1.39,0.24-2.9,0.58-4.52c0.05-0.18,0.1-0.37,0.15-0.58c0-0.05,0.02-0.14,0.08-0.27c0-0.02,0-0.05,0-0.08
		c0-0.02,0-0.05,0-0.08h0.04c0.1-0.41,0.22-0.84,0.35-1.27c0.23-0.8,0.5-1.61,0.81-2.44c0.64-1.68,1.39-3.35,2.24-5.02
		c1.75-3.45,3.78-6.48,6.07-9.09c2.49-2.87,5.04-4.97,7.65-6.31c0.05-0.02,0.13-0.06,0.23-0.12c0.02,0,0.04,0,0.04-0.02
		c0-0.01,0.01-0.02,0.04-0.02c0.21-0.1,0.39-0.18,0.54-0.23c0.34-0.15,0.67-0.28,1-0.39c0.7-0.23,1.36-0.4,2.01-0.5
		c0.31-0.05,0.66-0.09,1.05-0.12h0.04c0.02,0,0.06,0,0.12,0c0.05,0,0.09,0,0.12,0c0.18,0,0.35,0.01,0.5,0.04
		c0.34,0,0.67,0.02,1,0.08c0.15,0.02,0.31,0.07,0.46,0.12c0.02,0,0.06,0.01,0.12,0.02c0.05,0.01,0.09,0.02,0.12,0.02h0.04
		c0.26,0.08,0.44,0.14,0.54,0.19c0.13,0.05,0.21,0.08,0.23,0.08v0.04h0.04c0.05,0.02,0.09,0.05,0.12,0.08l0.04,0.04
		c-0.02,0.05,0.01,0.09,0.12,0.12c0.02,0.05,0.05,0.09,0.08,0.12c0.02,0.02,0.02,0.04,0.03,0.05c0-0.01-0.01-0.02-0.01-0.02
		c-0.01,0,0,0.04,0.06,0.12v0.04c0.02,0.05,0.08,0.19,0.15,0.42c0,0.02,0,0.04,0.02,0.04c0.01,0,0.02,0.01,0.02,0.04v0.04
		c0.02,0.15,0.05,0.27,0.08,0.35c0.02,0.21,0.05,0.42,0.08,0.66c0,0.08,0.01,0.18,0.04,0.31v0.04c0,0.02,0,0.07,0,0.12
		c0,0.54-0.02,1-0.08,1.39c-0.1,0.95-0.28,1.9-0.54,2.82c-0.59,2.14-1.47,4.07-2.63,5.8c-1.19,1.78-2.45,2.96-3.79,3.56
		c-0.64,0.26-1.15,0.39-1.51,0.39c-0.05,0-0.15-0.01-0.31-0.04c-0.21-0.34-0.48-0.64-0.83-0.91c-0.35-0.27-0.69-0.37-1.02-0.29
		c-0.18,0.05-0.31,0.15-0.39,0.29c-0.08,0.14-0.1,0.29-0.08,0.46c0.02,0.17,0.06,0.33,0.12,0.49c0.05,0.15,0.12,0.29,0.19,0.42
		c0.75,1.32,1.73,2.11,2.94,2.4c0.72,0.15,1.55,0.04,2.47-0.35c1.21-0.49,2.27-1.25,3.17-2.28c1.93-2.14,3.34-4.79,4.22-7.96
		c0.95-3.53,0.86-6.41-0.27-8.62c-0.57-1.13-1.41-2-2.53-2.59s-2.38-0.91-3.77-0.97c-3.81-0.15-7.7,1.62-11.67,5.34
		c-2.53,2.35-4.8,5.15-6.81,8.38c-1.05-6.19-3.88-13.18-7.86-16.11c-1.64-1.2-3.35-1.63-5.1-1.27c-5.68,1.18-6.82,4.81-7.05,6.31
		c-0.03,0.2,0.06,0.39,0.22,0.47c0.14,0.06,0.29,0.02,0.39-0.1c0.97-1.17,3.85-3.41,9.51,1.01c4.39,3.44,6.73,9.24,7.95,13.08
		c-0.17,0.32-0.34,0.63-0.5,0.95c-2.55,5.13-3.9,9.78-4.06,13.96c-0.08,2.29,0.3,4.41,1.14,6.34s2.19,3.36,4.08,4.29
		c1.03,0.51,2.1,0.82,3.21,0.91c1.11,0.09,2.16,0,3.15-0.25c0.99-0.26,2-0.66,3.02-1.2c1.02-0.54,1.95-1.14,2.78-1.8
		c0.84-0.66,1.66-1.4,2.46-2.22c-0.13,0.98-0.28,1.82-0.46,2.51c-0.9,3.4-2.32,6.2-4.25,8.39c-0.9,1-1.87,1.85-2.9,2.55
		c-0.93,0.62-1.88,1.08-2.86,1.39c-0.49,0.15-0.99,0.27-1.51,0.35c-0.18,0.02-0.4,0.05-0.66,0.08c-0.02,0-0.08,0-0.15,0
		c-0.18,0-0.31,0-0.39,0c-0.46-0.02-0.9-0.08-1.32-0.15c-0.02,0-0.07-0.01-0.14-0.02c-0.05-0.01-0.08-0.02-0.1-0.04
		c-0.05-0.01-0.09-0.02-0.11-0.02c-0.21-0.08-0.4-0.15-0.58-0.23c-0.02,0-0.07-0.01-0.12-0.04c-0.02-0.02-0.05-0.05-0.08-0.06
		c-0.02-0.01-0.05-0.02-0.08-0.02c0-0.02-0.09-0.1-0.27-0.23l0.04,0.04l-0.06-0.05c-0.04-0.01-0.07-0.03-0.1-0.07l-0.12-0.08
		L20.66,75l-0.15-0.19c-0.13-0.18-0.29-0.35-0.5-0.5s-0.43-0.27-0.68-0.35c-0.24-0.08-0.46-0.04-0.64,0.12
		c-0.21,0.13-0.29,0.34-0.25,0.62s0.11,0.53,0.21,0.73c0.1,0.21,0.22,0.4,0.35,0.58c0.9,1.19,2.04,2,3.42,2.46
		c1.38,0.45,2.76,0.57,4.14,0.35s2.71-0.69,4-1.41c1.36-0.77,2.6-1.75,3.69-2.94c1.1-1.19,2-2.5,2.73-3.94
		c0.72-1.44,1.31-2.91,1.76-4.41c0.45-1.49,0.78-3.04,0.99-4.64c0.31-2.32,0.63-4.05,0.97-5.18c0.7-0.98,1.27-1.92,1.74-2.82
		c0.21-0.44,0.32-0.8,0.35-1.08C42.84,51.84,42.62,51.28,42.13,50.69z"/>
	<path class="st4" d="M20.99,75.22c-0.02-0.02-0.07-0.05-0.12-0.08l0.1,0.07C20.97,75.22,20.98,75.22,20.99,75.22z"/>
	<path class="st4" d="M22.34,75.84c-0.02,0-0.08-0.01-0.15-0.04c0.01,0.01,0.02,0.01,0.03,0.02c0.02,0,0.05,0.01,0.09,0.02
		L22.34,75.84L22.34,75.84z"/>
	<path class="st4" d="M57.44,51.89c-0.28-0.35-0.61-0.6-0.97-0.76c-2.47-1.06-4.99-0.05-7.54,3.02c0.08-0.62,0.08-1.13,0-1.55
		c-0.08-0.41-0.26-0.79-0.54-1.14c-0.28-0.35-0.61-0.58-0.97-0.71c-0.34-0.13-0.61-0.11-0.83,0.06c-0.22,0.17-0.29,0.43-0.21,0.79
		c0,0.02,0,0.07,0,0.12s-0.01,0.14-0.02,0.25c-0.01,0.12-0.02,0.2-0.02,0.25c-0.02,0.34-0.09,0.77-0.19,1.32
		c-0.18,0.93-0.44,2.04-0.77,3.32c-0.57,2.04-1.26,4.38-2.09,7.04c-0.21,0.62-0.37,1.12-0.5,1.51c-0.23,0.7,0.02,1.38,0.77,2.05
		c0.15,0.13,0.34,0.25,0.54,0.37c0.21,0.12,0.42,0.17,0.66,0.17c0.23,0,0.4-0.12,0.5-0.35c0.59-1.7,1.39-3.52,2.4-5.45
		c0.88-1.68,1.75-3.13,2.63-4.37c1.03-1.47,2.07-2.58,3.13-3.32c0.62-0.44,1.24-0.71,1.85-0.81c0.1-0.02,0.23-0.05,0.39-0.08
		l0.19,0.04c0.13,0,0.21,0,0.23,0c0.1,0,0.23,0.01,0.39,0.04c0.05,0.02,0.09,0.05,0.12,0.06c0.02,0.01,0.08,0.03,0.15,0.06
		c0.08,0.02,0.13,0.05,0.15,0.08c0.34,0.13,0.61,0.1,0.83-0.08s0.3-0.45,0.25-0.81C57.9,52.61,57.72,52.24,57.44,51.89z"/>
	<path class="st4" d="M115.38,57.63c0.02-0.26-0.02-0.53-0.15-0.81c-0.23-0.46-0.46-0.51-0.7-0.15c-0.13,0.15-0.28,0.36-0.46,0.62
		c-0.05,0.05-0.12,0.13-0.19,0.23c-0.13,0.18-0.21,0.28-0.23,0.31c-0.23,0.28-0.48,0.57-0.73,0.85c-1.44,1.65-2.94,2.97-4.48,3.98
		c-2.14,1.39-4.1,2.01-5.87,1.85c0-0.02,0-0.05,0-0.08c-0.02,0-0.04-0.01-0.04-0.04c0-0.02,0-0.05,0-0.08
		c-0.1-0.44-0.17-0.83-0.19-1.16c0-0.02,0-0.08,0-0.15c0-0.05,0-0.09,0-0.12v-0.04V62.8c0-0.05,0-0.13,0-0.23c0-0.13,0-0.22,0-0.27
		c0-0.39,0-0.84,0-1.35c0.02-0.31,0.06-0.77,0.1-1.39s0.06-0.97,0.06-1.05c0.1-0.62,0.13-1.35,0.08-2.2
		c-0.05-0.85-0.24-1.55-0.58-2.09c-0.67-1.11-1.47-1.6-2.4-1.47c-0.41,0.05-0.9,0.27-1.47,0.66c-0.83,0.59-1.97,1.77-3.44,3.52
		c-0.36,0.41-1.17,1.41-2.44,2.97c0.57-1.49,1.02-2.77,1.35-3.83c0.41-1.36,0.67-2.46,0.77-3.29c0.05-0.26,0.02-0.52-0.1-0.79
		c-0.12-0.27-0.27-0.51-0.46-0.71c-0.19-0.21-0.39-0.39-0.6-0.54c-0.26-0.18-0.55-0.25-0.87-0.21s-0.51,0.24-0.56,0.6
		c-0.1,0.77-0.36,1.83-0.77,3.17c-0.32,0.95-0.76,2.2-1.34,3.73c-1.22,1.22-2.6,2.37-4.15,3.46c-1.78,1.24-3.47,2.1-5.07,2.59
		c-1.03,0.28-1.92,0.43-2.67,0.43c-0.15,0-0.29-0.01-0.43-0.04c-0.21-0.02-0.32-0.05-0.35-0.08c-0.02,0-0.14-0.04-0.35-0.12
		c-0.02,0-0.05-0.01-0.08-0.04c-0.1-0.05-0.17-0.09-0.19-0.12c-0.05-0.05-0.09-0.09-0.12-0.12c-0.05-0.05-0.08-0.09-0.08-0.12v0.04
		c-0.02-0.02-0.04-0.05-0.04-0.08c0,0.02,0.01,0.04,0.04,0.04c0-0.02-0.01-0.06-0.04-0.12c-0.02-0.05-0.05-0.14-0.08-0.27
		c-0.1-0.62-0.04-1.34,0.19-2.17c0.08,0.05,0.15,0.09,0.23,0.12c0.67,0.28,1.28,0.39,1.82,0.31c0.83-0.13,1.61-0.45,2.36-0.97
		c1.32-0.93,2.27-2.24,2.86-3.94c0.59-1.78,0.54-3.27-0.15-4.48c-0.15-0.28-0.35-0.55-0.58-0.79s-0.5-0.45-0.79-0.62
		s-0.6-0.27-0.91-0.29c-0.7-0.05-1.46,0.23-2.28,0.85c-1.34,1-2.63,2.68-3.87,5.02c-0.39,0.71-0.7,1.39-0.94,2.05
		c-1.07,1.02-2.27,1.98-3.58,2.9c-1.78,1.24-3.46,2.1-5.07,2.59c-1.03,0.28-1.92,0.43-2.67,0.43c-0.15,0-0.29-0.01-0.42-0.04
		c-0.21-0.02-0.32-0.05-0.35-0.08c-0.02,0-0.14-0.04-0.35-0.12c-0.02,0-0.05-0.01-0.08-0.04c-0.1-0.05-0.17-0.09-0.19-0.12
		c-0.05-0.05-0.09-0.09-0.12-0.12c-0.05-0.05-0.08-0.09-0.08-0.12v0.04c-0.02-0.02-0.04-0.05-0.04-0.08c0,0.02,0.01,0.04,0.04,0.04
		c0-0.02-0.01-0.06-0.04-0.12c-0.02-0.05-0.05-0.14-0.08-0.27c-0.1-0.62-0.04-1.34,0.19-2.17c0.08,0.05,0.15,0.09,0.23,0.12
		c0.67,0.28,1.27,0.39,1.82,0.31c0.83-0.13,1.61-0.45,2.36-0.97c1.32-0.93,2.27-2.24,2.86-3.94c0.59-1.78,0.54-3.27-0.15-4.48
		c-0.15-0.28-0.35-0.55-0.58-0.79s-0.5-0.45-0.79-0.62s-0.6-0.27-0.91-0.29c-0.7-0.05-1.46,0.23-2.28,0.85
		c-1.34,1-2.63,2.68-3.87,5.02c-1.34,2.45-1.8,4.52-1.39,6.22c0.28,1.19,0.86,2.22,1.74,3.09c0.88,0.88,1.88,1.36,3.02,1.47
		c1.32,0.1,2.63-0.08,3.96-0.54s2.5-1.07,3.52-1.84c1.01-0.76,1.94-1.58,2.79-2.48c0.02,0.1,0.03,0.2,0.05,0.29
		c0.28,1.19,0.86,2.22,1.74,3.09c0.88,0.88,1.88,1.36,3.02,1.47c1.32,0.1,2.63-0.08,3.96-0.54s2.5-1.07,3.52-1.84
		c0.69-0.51,1.34-1.06,1.95-1.64c-0.17,0.54-0.27,0.94-0.31,1.2c-0.08,0.67,0.15,1.32,0.68,1.93s1.12,0.84,1.76,0.66
		c0.41-0.1,0.98-0.53,1.7-1.27c0.49-0.49,0.98-1.03,1.47-1.62c0.49-0.59,1.06-1.29,1.7-2.09c0.64-0.8,1.1-1.36,1.35-1.7
		c0.1-0.1,0.29-0.34,0.58-0.7c0.28-0.36,0.49-0.62,0.62-0.77s0.32-0.38,0.58-0.68c0.26-0.29,0.48-0.54,0.66-0.73s0.4-0.4,0.66-0.62
		c0.26-0.22,0.5-0.42,0.73-0.6c-0.02,0.34-0.07,0.86-0.12,1.56c-0.05,0.71-0.08,1.28-0.1,1.7c-0.01,0.43-0.01,0.94,0,1.55
		s0.06,1.17,0.14,1.68c0.18,1.32,0.63,2.37,1.35,3.17c0.9,1.06,2.09,1.54,3.56,1.43c1.08-0.1,2.17-0.45,3.27-1.05
		c1.1-0.59,2.05-1.29,2.88-2.11c0.83-0.82,1.58-1.67,2.26-2.57s1.21-1.71,1.58-2.44C115.12,58.54,115.33,57.99,115.38,57.63z
		 M78.93,56.28c0.54-0.72,1.1-1.33,1.66-1.82c0.21-0.21,0.42-0.37,0.66-0.5l-0.04,0.12c0,0.02-0.01,0.09-0.04,0.19v0.04l-0.04,0.04
		c-0.1,0.39-0.23,0.73-0.39,1.05c-0.15,0.36-0.34,0.7-0.54,1c-0.18,0.31-0.39,0.59-0.62,0.85c-0.26,0.28-0.54,0.54-0.85,0.77
		c-0.34,0.26-0.63,0.44-0.89,0.54c-0.15,0.05-0.31,0.1-0.46,0.15C77.82,57.92,78.34,57.1,78.93,56.28z M63.85,56.28
		c0.54-0.72,1.1-1.33,1.66-1.82c0.21-0.21,0.42-0.37,0.66-0.5l-0.04,0.12c0,0.02-0.01,0.09-0.04,0.19v0.04l-0.03,0.04
		c-0.1,0.39-0.23,0.73-0.39,1.05c-0.15,0.36-0.34,0.7-0.54,1c-0.18,0.31-0.39,0.59-0.62,0.85c-0.26,0.28-0.54,0.54-0.85,0.77
		c-0.34,0.26-0.63,0.44-0.89,0.54c-0.15,0.05-0.31,0.1-0.46,0.15C62.74,57.92,63.26,57.1,63.85,56.28z M102.43,64.51l-0.04-0.04
		h0.04V64.51z M102.63,64.71v-0.02c0.02,0.03,0.04,0.06,0.05,0.09C102.67,64.76,102.65,64.73,102.63,64.71z"/>
	<path class="st4" d="M145.11,48.43c0.18,0.13,0.37,0.24,0.56,0.35c0.19,0.1,0.41,0.15,0.64,0.15s0.4-0.12,0.5-0.35
		c0.36-0.85,0.64-1.49,0.85-1.93c0.13-0.34,0.1-0.7-0.08-1.08s-0.41-0.71-0.7-0.97c-0.18-0.13-0.37-0.25-0.56-0.37
		c-0.2-0.12-0.41-0.17-0.64-0.15c-0.23,0.01-0.4,0.12-0.5,0.33c-0.39,0.88-0.67,1.54-0.85,1.97c-0.13,0.31-0.1,0.66,0.08,1.06
		C144.59,47.85,144.83,48.18,145.11,48.43z"/>
	<path class="st4" d="M183.49,56.78c-0.18-0.31-0.43-0.29-0.73,0.04c-1.47,1.68-3.24,3.24-5.29,4.68c-1.78,1.24-3.47,2.1-5.07,2.59
		c-1.03,0.28-1.92,0.43-2.67,0.43c-0.15,0-0.29-0.01-0.43-0.04c-0.21-0.02-0.32-0.05-0.35-0.08c-0.02,0-0.14-0.04-0.35-0.12
		c-0.02,0-0.05-0.01-0.08-0.04c-0.1-0.05-0.17-0.09-0.2-0.12c-0.05-0.05-0.09-0.09-0.12-0.12c-0.05-0.05-0.08-0.09-0.08-0.12v0.04
		c-0.02-0.02-0.04-0.05-0.04-0.08c0,0.02,0.01,0.04,0.04,0.04c0-0.02-0.01-0.06-0.04-0.12c-0.02-0.05-0.05-0.14-0.08-0.27
		c-0.1-0.62-0.04-1.34,0.19-2.17c0.08,0.05,0.15,0.09,0.23,0.12c0.67,0.28,1.28,0.39,1.82,0.31c0.83-0.13,1.61-0.45,2.36-0.97
		c1.32-0.93,2.27-2.24,2.86-3.94c0.59-1.78,0.54-3.27-0.15-4.48c-0.15-0.28-0.35-0.55-0.58-0.79s-0.5-0.45-0.79-0.62
		s-0.6-0.27-0.91-0.29c-0.7-0.05-1.46,0.23-2.28,0.85c-1.34,1-2.63,2.68-3.87,5.02c-0.34,0.61-0.61,1.2-0.84,1.76
		c-1.18,1.45-2.58,2.69-4.19,3.73c-2.09,1.34-4.37,2.27-6.84,2.78c0.99-2.63,2.13-5.49,3.42-8.59c3.82-4.06,8.16-9.27,8.05-11.82
		c-0.19-4.53-4.63-3.99-5.44-2.17c-0.98,2.17-2.12,4.79-3.44,7.89c-1.05,2.46-2.02,4.8-2.92,7.04c-0.99,0.89-2.11,1.82-3.39,2.78
		c-3.09,2.29-5.73,3.65-7.92,4.06c-0.62,0.1-1.15,0.13-1.58,0.08c-0.02,0-0.08-0.01-0.15-0.04l-0.04-0.23v-0.08v-0.08v-0.08
		c-0.02-0.18-0.02-0.29,0-0.35c0-0.44,0.05-0.94,0.15-1.51c0.05-0.21,0.1-0.46,0.15-0.77c0.02-0.02,0.04-0.06,0.04-0.12l0.04-0.08
		c0.05-0.21,0.09-0.37,0.12-0.5c0.31-1,0.71-2.1,1.2-3.29c0.64-1.52,1.3-2.89,1.97-4.1c0.05-0.1,0.09-0.21,0.12-0.31
		c0.08-0.59-0.24-1.2-0.97-1.82c-0.75-0.64-1.27-0.68-1.58-0.12c-0.62,1.11-1.22,2.36-1.82,3.75c-1.26,2.91-1.95,5.26-2.05,7.04
		c-0.05,1.36,0.21,2.5,0.77,3.4c0.93,1.44,2.06,2.17,3.4,2.17c1.13,0,2.32-0.27,3.56-0.79c1.24-0.53,2.35-1.17,3.34-1.93
		c0.99-0.76,1.92-1.56,2.78-2.41c0,0,0.02-0.01,0.04-0.04c-0.44,1.17-0.87,2.31-1.26,3.4c-0.21,0-0.36,0.06-0.46,0.17
		c-0.1,0.12-0.16,0.26-0.17,0.42c-0.01,0.17,0,0.34,0.02,0.52c0.02,0.08,0.07,0.17,0.12,0.27c-0.48,1.3-0.91,2.53-1.29,3.69
		c-0.04-0.1-0.08-0.2-0.14-0.29c-0.21-0.34-0.48-0.63-0.81-0.89c-0.34-0.26-0.68-0.36-1.05-0.31c-3.27,0.49-6.91,1.02-10.9,1.58
		c-6.8,0.98-11.92,1.69-15.35,2.12c0.15-0.18,0.31-0.39,0.46-0.62c1.78-2.6,3.54-6.39,5.29-11.36c1.49-4.28,2.91-9.21,4.25-14.81
		c1.13-4.69,2.05-9.21,2.75-13.57c0.02-0.15,0.09-0.55,0.2-1.18c0.1-0.63,0.17-1.03,0.19-1.2c0.02-0.17,0.08-0.57,0.17-1.2
		c0.09-0.63,0.14-1.03,0.15-1.2s0.05-0.57,0.12-1.22c0.06-0.64,0.08-1.05,0.06-1.22s-0.02-0.57,0-1.22c0-0.34-0.01-0.59-0.04-0.77
		c-0.02-0.23-0.12-0.48-0.27-0.73c-0.15-0.26-0.34-0.48-0.56-0.68c-0.22-0.19-0.44-0.34-0.68-0.44c-0.34-0.13-0.61-0.11-0.81,0.06
		s-0.28,0.43-0.23,0.79c0,0.02,0,0.06,0,0.12v0.04v0.04c0,0.05,0,0.13,0,0.23s0,0.18,0,0.23c0,0.39-0.02,0.85-0.08,1.39
		c-0.08,1.08-0.22,2.39-0.43,3.9c-0.46,3.25-1.11,6.87-1.93,10.86c-0.95,4.48-2,8.7-3.13,12.64c-1.34,4.69-2.72,8.68-4.14,11.98
		c-0.8,1.8-1.58,3.38-2.36,4.72c-0.41,0.72-0.83,1.36-1.24,1.93c-0.1,0.1-0.21,0.23-0.31,0.39c0,0.02-0.01,0.05-0.04,0.08
		c-0.02,0-0.05,0.01-0.08,0.04c-0.02,0.08-0.05,0.13-0.08,0.15c-0.21,0.26-0.42,0.49-0.66,0.7c-0.44,0.46-0.88,0.85-1.32,1.16
		c-0.08,0.05-0.28,0.18-0.62,0.39c-0.02,0-0.05,0-0.08,0.02c-0.02,0.01-0.05,0.02-0.08,0.02c-0.13,0.08-0.24,0.13-0.35,0.15
		c-0.05,0-0.16,0.02-0.33,0.06s-0.29,0.07-0.37,0.1c-0.44,0.23-0.61,0.55-0.52,0.97c0.09,0.41,0.34,0.83,0.76,1.26
		c0.41,0.42,0.78,0.65,1.12,0.68c0.21,0.02,0.81-0.02,1.82-0.15c0.8-0.08,1.95-0.22,3.44-0.43c2.53-0.34,5.98-0.81,10.36-1.43
		c3.27-0.46,6.88-0.98,10.82-1.55c2.32-0.34,4.43-0.63,6.34-0.89c0.07-0.01,0.13-0.02,0.18-0.04c-0.33,1.05-0.63,2.05-0.88,2.97
		c-0.77,2.76-1.21,4.88-1.32,6.38c-0.15,2.42,0.48,4.08,1.9,4.99c0.67,0.44,1.36,0.57,2.09,0.39c0.72-0.18,1.36-0.51,1.93-0.99
		c0.57-0.48,1.03-1.04,1.39-1.68c1.24-2.17,1.78-5.09,1.62-8.77c-0.05-1.36-0.19-2.63-0.41-3.81c-0.22-1.17-0.58-2.24-1.1-3.19
		c1.57-0.18,3.09-0.59,4.54-1.24c1.46-0.64,2.69-1.37,3.71-2.18c0.95-0.76,1.8-1.55,2.55-2.38c0.02,0.2,0.05,0.39,0.1,0.58
		c0.28,1.19,0.86,2.22,1.74,3.09c0.88,0.88,1.88,1.36,3.02,1.47c1.32,0.1,2.63-0.08,3.96-0.54s2.5-1.07,3.52-1.84
		c1.02-0.76,1.95-1.59,2.8-2.49s1.52-1.72,2.01-2.46s0.78-1.31,0.89-1.72C183.64,57.59,183.65,57.09,183.49,56.78z M170.89,56.28
		c0.54-0.72,1.1-1.33,1.66-1.82c0.21-0.21,0.42-0.37,0.66-0.5l-0.04,0.12c0,0.02-0.01,0.09-0.04,0.19v0.04l-0.04,0.04
		c-0.1,0.39-0.23,0.73-0.39,1.05c-0.15,0.36-0.34,0.7-0.54,1c-0.18,0.31-0.39,0.59-0.62,0.85c-0.26,0.28-0.54,0.54-0.85,0.77
		c-0.34,0.26-0.63,0.44-0.89,0.54c-0.15,0.05-0.31,0.1-0.46,0.15C169.79,57.92,170.3,57.1,170.89,56.28z M162.93,45.89
		c0.13-0.32,0.26-0.61,0.37-0.88c0.2-0.4,0.66-0.8,0.95-0.8c0.41,0.01,0.48,0.5,0.47,0.79c-0.05,1.62-3.72,5.52-3.72,5.52
		L162.93,45.89z M149.09,83.57c-0.03-0.01-0.05-0.01-0.07-0.02c0.03,0,0.06,0,0.11,0.02H149.09z M153.53,73.41v0.15
		c0,0.13,0,0.21,0,0.23c0,0.21,0,0.43,0,0.66c0,0.75-0.04,1.48-0.12,2.2c-0.08,0.75-0.18,1.46-0.31,2.12
		c-0.15,0.59-0.35,1.17-0.58,1.74c-0.21,0.57-0.49,1.11-0.85,1.62c0,0.02-0.01,0.05-0.04,0.08c-0.02,0.05-0.05,0.08-0.08,0.08
		c-0.1,0.13-0.18,0.22-0.23,0.27c-0.21,0.21-0.43,0.39-0.66,0.54c-0.05,0.05-0.15,0.12-0.31,0.19c-0.05,0.02-0.09,0.05-0.12,0.08
		c-0.15,0.05-0.31,0.09-0.46,0.12c0.02-0.1,0.03-0.25,0.02-0.44s0-0.34,0.02-0.44c0.05-0.75,0.18-1.64,0.39-2.67
		c0.1-0.46,0.22-0.98,0.35-1.55c0.02-0.05,0.07-0.18,0.12-0.39c0-0.05,0.01-0.09,0.02-0.12c0.01-0.02,0.02-0.07,0.02-0.12
		c0.1-0.36,0.18-0.64,0.23-0.85c0.57-1.98,1.29-4.24,2.17-6.76c0.05,0.18,0.08,0.28,0.08,0.31c0.13,0.62,0.22,1.29,0.27,2.01
		c0.02,0.18,0.04,0.36,0.04,0.54c0,0.02,0.01,0.1,0.04,0.23L153.53,73.41L153.53,73.41z"/>
</g>
</svg>
