<?xml version="1.0" encoding="utf-8"?>
<!-- Generator: Adobe Illustrator 24.2.0, SVG Export Plug-In . SVG Version: 6.00 Build 0)  -->
<svg version="1.1" id="Layer_1" xmlns="http://www.w3.org/2000/svg" xmlns:xlink="http://www.w3.org/1999/xlink" x="0px" y="0px"
	 viewBox="0 0 193 92.01" style="enable-background:new 0 0 193 92.01;" xml:space="preserve">
<style type="text/css">
	.st0{fill:#39B54A;}
</style>
<text transform="matrix(1 0 0 1 234.8844 -137.3933)" style="fill:#F15A29; font-family:'AvenirNext-Regular'; font-size:24px;">Platonic love of nature</text>
<g>
	<path class="st0" d="M39.36,10.88c1.76-0.8,3.57-1.2,5.38-1.17c0.13,0,0.25-0.1,0.28-0.24c0.03-0.15-0.04-0.29-0.17-0.35
		c-1.19-0.49-3.07-0.91-5.3-0.07c-3.08,1.17-4.96,4.09-5.62,5.29l-0.77,1.39l1.1-1.15C35.82,12.96,37.54,11.72,39.36,10.88z"/>
	<path class="st0" d="M21.21,6.19c0.69,0.23,1.17,0.6,1.43,0.83c3.53,2.97,3.76,16.53,3.69,22.48c-0.01,0.73,0.34,1.35,0.87,1.54
		c0.08,0.03,0.17,0.05,0.25,0.05c0.34,0.02,0.68-0.15,0.94-0.49c1.99-2.59,5.65-6.79,10.04-8.34c5.52-1.95,7.33-1.66,7.83-1.71
		c0.11-0.01,0.21-0.09,0.25-0.2c0.05-0.13,0.03-0.28-0.06-0.39c-0.83-0.97-3.92-4.03-8.76-2.45c-4.17,1.36-6.91,5.15-8.03,6.97
		c0.43-2.9,1.39-10.52,0.06-13.27c-1.57-3.26-6.47-6.51-9.21-6.11c-0.68,0.1-1.31,0.47-1.85,1.07C19.72,5.87,20.59,5.98,21.21,6.19z
		"/>
	<path class="st0" d="M17.74,12.05c0.12-0.02,0.21-0.12,0.22-0.25c0.12-1.09,1.35-4.22,2.81-5.07c0.24-0.15,0.48-0.21,0.71-0.21
		c-0.73-0.33-1.77-0.52-3.07-0.05c-0.19,0.24-0.36,0.51-0.52,0.81c-0.83,1.56-1,3.47-0.44,4.63C17.52,12.01,17.63,12.07,17.74,12.05
		z"/>
	<path class="st0" d="M44.07,53.28c-0.49-0.58-0.99-0.8-1.51-0.68c-0.1,0-0.2,0.03-0.29,0.1c-0.09,0.07-0.17,0.12-0.25,0.17
		c-0.08,0.05-0.15,0.14-0.23,0.25c-0.08,0.12-0.14,0.21-0.19,0.29c-0.05,0.08-0.11,0.18-0.17,0.31c-0.07,0.13-0.12,0.22-0.15,0.29
		c-0.04,0.07-0.09,0.17-0.15,0.31c-0.07,0.14-0.1,0.22-0.1,0.25c-0.31,0.62-0.58,1.29-0.81,2.01c-1.06,1.49-2.2,2.88-3.44,4.14
		c-4.05,4.12-7.9,5.79-11.56,4.99h-0.04h-0.04c-0.05-0.02-0.09-0.04-0.12-0.04c-0.18-0.08-0.34-0.13-0.46-0.15
		c-0.13-0.05-0.26-0.1-0.39-0.15c0-0.02-0.02-0.04-0.08-0.04c-0.02-0.02-0.05-0.04-0.08-0.04c-0.02-0.02-0.12-0.1-0.27-0.21
		c-0.15-0.12-0.28-0.19-0.39-0.21l-0.04-0.04c-0.02-0.02-0.12-0.12-0.27-0.27L23,64.53c-0.1-0.1-0.19-0.21-0.27-0.31v-0.04
		c-0.13-0.18-0.21-0.31-0.23-0.39c0-0.02-0.02-0.07-0.06-0.14c-0.04-0.06-0.07-0.11-0.1-0.14c-0.02-0.08-0.04-0.13-0.04-0.15
		c-0.08-0.21-0.18-0.48-0.31-0.81c0-0.02,0-0.05,0-0.08v-0.04c-0.05-0.21-0.09-0.37-0.12-0.5c-0.05-0.31-0.1-0.63-0.15-0.97
		c-0.02-0.15-0.04-0.31-0.04-0.46c0-0.02,0-0.06,0-0.12c0-0.05,0-0.09,0-0.12v-0.04c-0.02-0.44-0.04-0.78-0.04-1.05
		c0.05-1.39,0.24-2.9,0.58-4.52c0.05-0.18,0.1-0.37,0.15-0.58c0-0.05,0.02-0.14,0.08-0.27c0-0.02,0-0.05,0-0.08
		c0-0.02,0-0.05,0-0.08h0.04c0.1-0.41,0.22-0.84,0.35-1.27c0.23-0.8,0.5-1.61,0.81-2.44c0.64-1.68,1.39-3.35,2.24-5.02
		c1.75-3.45,3.78-6.48,6.07-9.09c2.49-2.87,5.04-4.97,7.65-6.31c0.05-0.02,0.13-0.06,0.23-0.12c0.02,0,0.04,0,0.04-0.02
		c0-0.01,0.01-0.02,0.04-0.02c0.21-0.1,0.39-0.18,0.54-0.23c0.34-0.15,0.67-0.28,1-0.39c0.7-0.23,1.36-0.4,2.01-0.5
		c0.31-0.05,0.66-0.09,1.05-0.12h0.04c0.02,0,0.06,0,0.12,0c0.05,0,0.09,0,0.12,0c0.18,0,0.35,0.01,0.5,0.04
		c0.34,0,0.67,0.02,1,0.08c0.15,0.02,0.31,0.07,0.46,0.12c0.02,0,0.06,0.01,0.12,0.02c0.05,0.01,0.09,0.02,0.12,0.02h0.04
		c0.26,0.08,0.44,0.14,0.54,0.19c0.13,0.05,0.21,0.08,0.23,0.08v0.04h0.04c0.05,0.02,0.09,0.05,0.12,0.08l0.04,0.04
		c-0.02,0.05,0.01,0.09,0.12,0.12c0.02,0.05,0.05,0.09,0.08,0.12c0.02,0.02,0.02,0.04,0.03,0.05c0-0.01-0.01-0.02-0.01-0.02
		c-0.01,0,0,0.04,0.06,0.12v0.04c0.02,0.05,0.08,0.19,0.15,0.42c0,0.02,0,0.04,0.02,0.04c0.01,0,0.02,0.01,0.02,0.04v0.04
		c0.02,0.15,0.05,0.27,0.08,0.35c0.02,0.21,0.05,0.42,0.08,0.66c0,0.08,0.01,0.18,0.04,0.31v0.04c0,0.02,0,0.07,0,0.12
		c0,0.54-0.02,1-0.08,1.39c-0.1,0.95-0.28,1.9-0.54,2.82c-0.59,2.14-1.47,4.07-2.63,5.8c-1.19,1.78-2.45,2.96-3.79,3.56
		c-0.64,0.26-1.15,0.39-1.51,0.39c-0.05,0-0.15-0.01-0.31-0.04c-0.21-0.34-0.48-0.64-0.83-0.91c-0.35-0.27-0.69-0.37-1.02-0.29
		c-0.18,0.05-0.31,0.15-0.39,0.29c-0.08,0.14-0.1,0.29-0.08,0.46c0.02,0.17,0.06,0.33,0.12,0.49c0.05,0.15,0.12,0.29,0.19,0.42
		c0.75,1.32,1.73,2.11,2.94,2.4c0.72,0.15,1.55,0.04,2.47-0.35c1.21-0.49,2.27-1.25,3.17-2.28c1.93-2.14,3.34-4.79,4.22-7.96
		c0.95-3.53,0.86-6.41-0.27-8.62c-0.57-1.13-1.41-2-2.53-2.59c-1.12-0.59-2.38-0.91-3.77-0.97c-3.81-0.15-7.7,1.62-11.67,5.34
		c-2.53,2.35-4.8,5.15-6.81,8.38c-1.05-6.19-3.88-13.18-7.86-16.11c-1.64-1.2-3.35-1.63-5.1-1.27c-5.68,1.18-6.82,4.81-7.05,6.31
		c-0.03,0.2,0.06,0.39,0.22,0.47c0.14,0.06,0.29,0.02,0.39-0.1c0.97-1.17,3.85-3.41,9.51,1.01c4.39,3.44,6.73,9.24,7.95,13.08
		c-0.17,0.32-0.34,0.63-0.5,0.95c-2.55,5.13-3.9,9.78-4.06,13.96c-0.08,2.29,0.3,4.41,1.14,6.34c0.84,1.93,2.19,3.36,4.08,4.29
		c1.03,0.51,2.1,0.82,3.21,0.91c1.11,0.09,2.16,0,3.15-0.25c0.99-0.26,2-0.66,3.02-1.2c1.02-0.54,1.95-1.14,2.78-1.8
		c0.84-0.66,1.66-1.4,2.46-2.22c-0.13,0.98-0.28,1.82-0.46,2.51c-0.9,3.4-2.32,6.2-4.25,8.39c-0.9,1-1.87,1.85-2.9,2.55
		c-0.93,0.62-1.88,1.08-2.86,1.39c-0.49,0.15-0.99,0.27-1.51,0.35c-0.18,0.02-0.4,0.05-0.66,0.08c-0.02,0-0.08,0-0.15,0
		c-0.18,0-0.31,0-0.39,0c-0.46-0.02-0.9-0.08-1.32-0.15c-0.02,0-0.07-0.01-0.14-0.02c-0.05-0.01-0.08-0.02-0.1-0.04
		c-0.05-0.01-0.09-0.02-0.11-0.02c-0.21-0.08-0.4-0.15-0.58-0.23c-0.02,0-0.07-0.01-0.12-0.04c-0.02-0.02-0.05-0.05-0.08-0.06
		c-0.02-0.01-0.05-0.02-0.08-0.02c0-0.02-0.09-0.1-0.27-0.23l0.04,0.04l-0.06-0.05c-0.04-0.01-0.07-0.03-0.1-0.07l-0.12-0.08
		l-0.08-0.08l-0.15-0.19c-0.13-0.18-0.29-0.35-0.5-0.5c-0.21-0.15-0.43-0.27-0.68-0.35c-0.24-0.08-0.46-0.04-0.64,0.12
		c-0.21,0.13-0.29,0.34-0.25,0.62s0.11,0.53,0.21,0.73c0.1,0.21,0.22,0.4,0.35,0.58c0.9,1.19,2.04,2,3.42,2.46
		c1.38,0.45,2.76,0.57,4.14,0.35c1.38-0.22,2.71-0.69,4-1.41c1.36-0.77,2.6-1.75,3.69-2.94c1.1-1.19,2-2.5,2.73-3.94
		c0.72-1.44,1.31-2.91,1.76-4.41c0.45-1.49,0.78-3.04,0.99-4.64c0.31-2.32,0.63-4.05,0.97-5.18c0.7-0.98,1.27-1.92,1.74-2.82
		c0.21-0.44,0.32-0.8,0.35-1.08C44.78,54.43,44.56,53.87,44.07,53.28z"/>
	<path class="st0" d="M22.93,77.81c-0.02-0.02-0.07-0.05-0.12-0.08l0.1,0.07C22.91,77.81,22.92,77.81,22.93,77.81z"/>
	<path class="st0" d="M24.28,78.43c-0.02,0-0.08-0.01-0.15-0.04c0.01,0.01,0.02,0.01,0.03,0.02c0.02,0,0.05,0.01,0.09,0.02
		L24.28,78.43L24.28,78.43z"/>
	<path class="st0" d="M59.38,54.48c-0.28-0.35-0.61-0.6-0.97-0.76c-2.47-1.06-4.99-0.05-7.54,3.02c0.08-0.62,0.08-1.13,0-1.55
		c-0.08-0.41-0.26-0.79-0.54-1.14c-0.28-0.35-0.61-0.58-0.97-0.71c-0.34-0.13-0.61-0.11-0.83,0.06c-0.22,0.17-0.29,0.43-0.21,0.79
		c0,0.02,0,0.07,0,0.12c0,0.05-0.01,0.14-0.02,0.25c-0.01,0.12-0.02,0.2-0.02,0.25c-0.02,0.34-0.09,0.77-0.19,1.32
		c-0.18,0.93-0.44,2.04-0.77,3.32c-0.57,2.04-1.26,4.38-2.09,7.04c-0.21,0.62-0.37,1.12-0.5,1.51c-0.23,0.7,0.02,1.38,0.77,2.05
		c0.15,0.13,0.34,0.25,0.54,0.37c0.21,0.12,0.42,0.17,0.66,0.17c0.23,0,0.4-0.12,0.5-0.35c0.59-1.7,1.39-3.52,2.4-5.45
		c0.88-1.68,1.75-3.13,2.63-4.37c1.03-1.47,2.07-2.58,3.13-3.32c0.62-0.44,1.24-0.71,1.85-0.81c0.1-0.02,0.23-0.05,0.39-0.08
		l0.19,0.04c0.13,0,0.21,0,0.23,0c0.1,0,0.23,0.01,0.39,0.04c0.05,0.02,0.09,0.05,0.12,0.06c0.02,0.01,0.08,0.03,0.15,0.06
		c0.08,0.02,0.13,0.05,0.15,0.08c0.34,0.13,0.61,0.1,0.83-0.08c0.22-0.18,0.3-0.45,0.25-0.81C59.84,55.2,59.66,54.83,59.38,54.48z"
		/>
	<path class="st0" d="M117.32,60.22c0.02-0.26-0.02-0.53-0.15-0.81c-0.23-0.46-0.46-0.51-0.7-0.15c-0.13,0.15-0.28,0.36-0.46,0.62
		c-0.05,0.05-0.12,0.13-0.19,0.23c-0.13,0.18-0.21,0.28-0.23,0.31c-0.23,0.28-0.48,0.57-0.73,0.85c-1.44,1.65-2.94,2.97-4.48,3.98
		c-2.14,1.39-4.1,2.01-5.87,1.85c0-0.02,0-0.05,0-0.08c-0.02,0-0.04-0.01-0.04-0.04c0-0.02,0-0.05,0-0.08
		c-0.1-0.44-0.17-0.83-0.19-1.16c0-0.02,0-0.08,0-0.15c0-0.05,0-0.09,0-0.12v-0.04v-0.04c0-0.05,0-0.13,0-0.23c0-0.13,0-0.22,0-0.27
		c0-0.39,0-0.84,0-1.35c0.02-0.31,0.06-0.77,0.1-1.39c0.04-0.62,0.06-0.97,0.06-1.05c0.1-0.62,0.13-1.35,0.08-2.2
		c-0.05-0.85-0.24-1.55-0.58-2.09c-0.67-1.11-1.47-1.6-2.4-1.47c-0.41,0.05-0.9,0.27-1.47,0.66c-0.83,0.59-1.97,1.77-3.44,3.52
		c-0.36,0.41-1.17,1.41-2.44,2.97c0.57-1.49,1.02-2.77,1.35-3.83c0.41-1.36,0.67-2.46,0.77-3.29c0.05-0.26,0.02-0.52-0.1-0.79
		c-0.12-0.27-0.27-0.51-0.46-0.71c-0.19-0.21-0.39-0.39-0.6-0.54c-0.26-0.18-0.55-0.25-0.87-0.21c-0.32,0.04-0.51,0.24-0.56,0.6
		c-0.1,0.77-0.36,1.83-0.77,3.17c-0.32,0.95-0.76,2.2-1.34,3.73c-1.22,1.22-2.6,2.37-4.15,3.46c-1.78,1.24-3.47,2.1-5.07,2.59
		c-1.03,0.28-1.92,0.43-2.67,0.43c-0.15,0-0.29-0.01-0.43-0.04c-0.21-0.02-0.32-0.05-0.35-0.08c-0.02,0-0.14-0.04-0.35-0.12
		c-0.02,0-0.05-0.01-0.08-0.04c-0.1-0.05-0.17-0.09-0.19-0.12c-0.05-0.05-0.09-0.09-0.12-0.12c-0.05-0.05-0.08-0.09-0.08-0.12v0.04
		c-0.02-0.02-0.04-0.05-0.04-0.08c0,0.02,0.01,0.04,0.04,0.04c0-0.02-0.01-0.06-0.04-0.12c-0.02-0.05-0.05-0.14-0.08-0.27
		c-0.1-0.62-0.04-1.34,0.19-2.17c0.08,0.05,0.15,0.09,0.23,0.12c0.67,0.28,1.28,0.39,1.82,0.31c0.83-0.13,1.61-0.45,2.36-0.97
		c1.32-0.93,2.27-2.24,2.86-3.94c0.59-1.78,0.54-3.27-0.15-4.48c-0.15-0.28-0.35-0.55-0.58-0.79c-0.23-0.24-0.5-0.45-0.79-0.62
		c-0.29-0.17-0.6-0.27-0.91-0.29c-0.7-0.05-1.46,0.23-2.28,0.85c-1.34,1-2.63,2.68-3.87,5.02c-0.39,0.71-0.7,1.39-0.94,2.05
		c-1.07,1.02-2.27,1.98-3.58,2.9c-1.78,1.24-3.46,2.1-5.07,2.59c-1.03,0.28-1.92,0.43-2.67,0.43c-0.15,0-0.29-0.01-0.42-0.04
		c-0.21-0.02-0.32-0.05-0.35-0.08c-0.02,0-0.14-0.04-0.35-0.12c-0.02,0-0.05-0.01-0.08-0.04c-0.1-0.05-0.17-0.09-0.19-0.12
		c-0.05-0.05-0.09-0.09-0.12-0.12c-0.05-0.05-0.08-0.09-0.08-0.12v0.04c-0.02-0.02-0.04-0.05-0.04-0.08c0,0.02,0.01,0.04,0.04,0.04
		c0-0.02-0.01-0.06-0.04-0.12c-0.02-0.05-0.05-0.14-0.08-0.27c-0.1-0.62-0.04-1.34,0.19-2.17c0.08,0.05,0.15,0.09,0.23,0.12
		c0.67,0.28,1.27,0.39,1.82,0.31c0.83-0.13,1.61-0.45,2.36-0.97c1.32-0.93,2.27-2.24,2.86-3.94c0.59-1.78,0.54-3.27-0.15-4.48
		c-0.15-0.28-0.35-0.55-0.58-0.79c-0.23-0.24-0.5-0.45-0.79-0.62c-0.29-0.17-0.6-0.27-0.91-0.29c-0.7-0.05-1.46,0.23-2.28,0.85
		c-1.34,1-2.63,2.68-3.87,5.02c-1.34,2.45-1.8,4.52-1.39,6.22c0.28,1.19,0.86,2.22,1.74,3.09c0.88,0.88,1.88,1.36,3.02,1.47
		c1.32,0.1,2.63-0.08,3.96-0.54c1.33-0.46,2.5-1.07,3.52-1.84c1.01-0.76,1.94-1.58,2.79-2.48c0.02,0.1,0.03,0.2,0.05,0.29
		c0.28,1.19,0.86,2.22,1.74,3.09c0.88,0.88,1.88,1.36,3.02,1.47c1.32,0.1,2.63-0.08,3.96-0.54c1.33-0.46,2.5-1.07,3.52-1.84
		c0.69-0.51,1.34-1.06,1.95-1.64c-0.17,0.54-0.27,0.94-0.31,1.2c-0.08,0.67,0.15,1.32,0.68,1.93s1.12,0.84,1.76,0.66
		c0.41-0.1,0.98-0.53,1.7-1.27c0.49-0.49,0.98-1.03,1.47-1.62c0.49-0.59,1.06-1.29,1.7-2.09c0.64-0.8,1.1-1.36,1.35-1.7
		c0.1-0.1,0.29-0.34,0.58-0.7c0.28-0.36,0.49-0.62,0.62-0.77s0.32-0.38,0.58-0.68c0.26-0.29,0.48-0.54,0.66-0.73
		c0.18-0.19,0.4-0.4,0.66-0.62c0.26-0.22,0.5-0.42,0.73-0.6c-0.02,0.34-0.07,0.86-0.12,1.56c-0.05,0.71-0.08,1.28-0.1,1.7
		c-0.01,0.43-0.01,0.94,0,1.55c0.01,0.61,0.06,1.17,0.14,1.68c0.18,1.32,0.63,2.37,1.35,3.17c0.9,1.06,2.09,1.54,3.56,1.43
		c1.08-0.1,2.17-0.45,3.27-1.05c1.1-0.59,2.05-1.29,2.88-2.11s1.58-1.67,2.26-2.57c0.68-0.9,1.21-1.71,1.58-2.44
		C117.06,61.13,117.27,60.58,117.32,60.22z M80.87,58.87c0.54-0.72,1.1-1.33,1.66-1.82c0.21-0.21,0.42-0.37,0.66-0.5l-0.04,0.12
		c0,0.02-0.01,0.09-0.04,0.19v0.04l-0.04,0.04c-0.1,0.39-0.23,0.73-0.39,1.05c-0.15,0.36-0.34,0.7-0.54,1
		c-0.18,0.31-0.39,0.59-0.62,0.85c-0.26,0.28-0.54,0.54-0.85,0.77c-0.34,0.26-0.63,0.44-0.89,0.54c-0.15,0.05-0.31,0.1-0.46,0.15
		C79.76,60.51,80.28,59.69,80.87,58.87z M65.79,58.87c0.54-0.72,1.1-1.33,1.66-1.82c0.21-0.21,0.42-0.37,0.66-0.5l-0.04,0.12
		c0,0.02-0.01,0.09-0.04,0.19v0.04L68,56.94c-0.1,0.39-0.23,0.73-0.39,1.05c-0.15,0.36-0.34,0.7-0.54,1
		c-0.18,0.31-0.39,0.59-0.62,0.85c-0.26,0.28-0.54,0.54-0.85,0.77c-0.34,0.26-0.63,0.44-0.89,0.54c-0.15,0.05-0.31,0.1-0.46,0.15
		C64.68,60.51,65.2,59.69,65.79,58.87z M104.37,67.1l-0.04-0.04h0.04V67.1z M104.57,67.3v-0.02c0.02,0.03,0.04,0.06,0.05,0.09
		C104.61,67.35,104.59,67.32,104.57,67.3z"/>
	<path class="st0" d="M147.05,51.02c0.18,0.13,0.37,0.24,0.56,0.35c0.19,0.1,0.41,0.15,0.64,0.15c0.23,0,0.4-0.12,0.5-0.35
		c0.36-0.85,0.64-1.49,0.85-1.93c0.13-0.34,0.1-0.7-0.08-1.08s-0.41-0.71-0.7-0.97c-0.18-0.13-0.37-0.25-0.56-0.37
		c-0.2-0.12-0.41-0.17-0.64-0.15c-0.23,0.01-0.4,0.12-0.5,0.33c-0.39,0.88-0.67,1.54-0.85,1.97c-0.13,0.31-0.1,0.66,0.08,1.06
		C146.53,50.44,146.77,50.77,147.05,51.02z"/>
	<path class="st0" d="M185.43,59.37c-0.18-0.31-0.43-0.29-0.73,0.04c-1.47,1.68-3.24,3.24-5.29,4.68c-1.78,1.24-3.47,2.1-5.07,2.59
		c-1.03,0.28-1.92,0.43-2.67,0.43c-0.15,0-0.29-0.01-0.43-0.04c-0.21-0.02-0.32-0.05-0.35-0.08c-0.02,0-0.14-0.04-0.35-0.12
		c-0.02,0-0.05-0.01-0.08-0.04c-0.1-0.05-0.17-0.09-0.2-0.12c-0.05-0.05-0.09-0.09-0.12-0.12c-0.05-0.05-0.08-0.09-0.08-0.12v0.04
		c-0.02-0.02-0.04-0.05-0.04-0.08c0,0.02,0.01,0.04,0.04,0.04c0-0.02-0.01-0.06-0.04-0.12c-0.02-0.05-0.05-0.14-0.08-0.27
		c-0.1-0.62-0.04-1.34,0.19-2.17c0.08,0.05,0.15,0.09,0.23,0.12c0.67,0.28,1.28,0.39,1.82,0.31c0.83-0.13,1.61-0.45,2.36-0.97
		c1.32-0.93,2.27-2.24,2.86-3.94c0.59-1.78,0.54-3.27-0.15-4.48c-0.15-0.28-0.35-0.55-0.58-0.79c-0.23-0.24-0.5-0.45-0.79-0.62
		c-0.29-0.17-0.6-0.27-0.91-0.29c-0.7-0.05-1.46,0.23-2.28,0.85c-1.34,1-2.63,2.68-3.87,5.02c-0.34,0.61-0.61,1.2-0.84,1.76
		c-1.18,1.45-2.58,2.69-4.19,3.73c-2.09,1.34-4.37,2.27-6.84,2.78c0.99-2.63,2.13-5.49,3.42-8.59c3.82-4.06,8.16-9.27,8.05-11.82
		c-0.19-4.53-4.63-3.99-5.44-2.17c-0.98,2.17-2.12,4.79-3.44,7.89c-1.05,2.46-2.02,4.8-2.92,7.04c-0.99,0.89-2.11,1.82-3.39,2.78
		c-3.09,2.29-5.73,3.65-7.92,4.06c-0.62,0.1-1.15,0.13-1.58,0.08c-0.02,0-0.08-0.01-0.15-0.04l-0.04-0.23v-0.08v-0.08v-0.08
		c-0.02-0.18-0.02-0.29,0-0.35c0-0.44,0.05-0.94,0.15-1.51c0.05-0.21,0.1-0.46,0.15-0.77c0.02-0.02,0.04-0.06,0.04-0.12l0.04-0.08
		c0.05-0.21,0.09-0.37,0.12-0.5c0.31-1,0.71-2.1,1.2-3.29c0.64-1.52,1.3-2.89,1.97-4.1c0.05-0.1,0.09-0.21,0.12-0.31
		c0.08-0.59-0.24-1.2-0.97-1.82c-0.75-0.64-1.27-0.68-1.58-0.12c-0.62,1.11-1.22,2.36-1.82,3.75c-1.26,2.91-1.95,5.26-2.05,7.04
		c-0.05,1.36,0.21,2.5,0.77,3.4c0.93,1.44,2.06,2.17,3.4,2.17c1.13,0,2.32-0.27,3.56-0.79c1.24-0.53,2.35-1.17,3.34-1.93
		c0.99-0.76,1.92-1.56,2.78-2.41c0,0,0.02-0.01,0.04-0.04c-0.44,1.17-0.87,2.31-1.26,3.4c-0.21,0-0.36,0.06-0.46,0.17
		c-0.1,0.12-0.16,0.26-0.17,0.42c-0.01,0.17,0,0.34,0.02,0.52c0.02,0.08,0.07,0.17,0.12,0.27c-0.48,1.3-0.91,2.53-1.29,3.69
		c-0.04-0.1-0.08-0.2-0.14-0.29c-0.21-0.34-0.48-0.63-0.81-0.89c-0.34-0.26-0.68-0.36-1.05-0.31c-3.27,0.49-6.91,1.02-10.9,1.58
		c-6.8,0.98-11.92,1.69-15.35,2.12c0.15-0.18,0.31-0.39,0.46-0.62c1.78-2.6,3.54-6.39,5.29-11.36c1.49-4.28,2.91-9.21,4.25-14.81
		c1.13-4.69,2.05-9.21,2.75-13.57c0.02-0.15,0.09-0.55,0.2-1.18c0.1-0.63,0.17-1.03,0.19-1.2c0.02-0.17,0.08-0.57,0.17-1.2
		c0.09-0.63,0.14-1.03,0.15-1.2c0.01-0.17,0.05-0.57,0.12-1.22c0.06-0.64,0.08-1.05,0.06-1.22s-0.02-0.57,0-1.22
		c0-0.34-0.01-0.59-0.04-0.77c-0.02-0.23-0.12-0.48-0.27-0.73c-0.15-0.26-0.34-0.48-0.56-0.68c-0.22-0.19-0.44-0.34-0.68-0.44
		c-0.34-0.13-0.61-0.11-0.81,0.06s-0.28,0.43-0.23,0.79c0,0.02,0,0.06,0,0.12v0.04v0.04c0,0.05,0,0.13,0,0.23c0,0.1,0,0.18,0,0.23
		c0,0.39-0.02,0.85-0.08,1.39c-0.08,1.08-0.22,2.39-0.43,3.9c-0.46,3.25-1.11,6.87-1.93,10.86c-0.95,4.48-2,8.7-3.13,12.64
		c-1.34,4.69-2.72,8.68-4.14,11.98c-0.8,1.8-1.58,3.38-2.36,4.72c-0.41,0.72-0.83,1.36-1.24,1.93c-0.1,0.1-0.21,0.23-0.31,0.39
		c0,0.02-0.01,0.05-0.04,0.08c-0.02,0-0.05,0.01-0.08,0.04c-0.02,0.08-0.05,0.13-0.08,0.15c-0.21,0.26-0.42,0.49-0.66,0.7
		c-0.44,0.46-0.88,0.85-1.32,1.16c-0.08,0.05-0.28,0.18-0.62,0.39c-0.02,0-0.05,0-0.08,0.02c-0.02,0.01-0.05,0.02-0.08,0.02
		c-0.13,0.08-0.24,0.13-0.35,0.15c-0.05,0-0.16,0.02-0.33,0.06c-0.17,0.04-0.29,0.07-0.37,0.1c-0.44,0.23-0.61,0.55-0.52,0.97
		c0.09,0.41,0.34,0.83,0.76,1.26c0.41,0.42,0.78,0.65,1.12,0.68c0.21,0.02,0.81-0.02,1.82-0.15c0.8-0.08,1.95-0.22,3.44-0.43
		c2.53-0.34,5.98-0.81,10.36-1.43c3.27-0.46,6.88-0.98,10.82-1.55c2.32-0.34,4.43-0.63,6.34-0.89c0.07-0.01,0.13-0.02,0.18-0.04
		c-0.33,1.05-0.63,2.05-0.88,2.97c-0.77,2.76-1.21,4.88-1.32,6.38c-0.15,2.42,0.48,4.08,1.9,4.99c0.67,0.44,1.36,0.57,2.09,0.39
		c0.72-0.18,1.36-0.51,1.93-0.99c0.57-0.48,1.03-1.04,1.39-1.68c1.24-2.17,1.78-5.09,1.62-8.77c-0.05-1.36-0.19-2.63-0.41-3.81
		c-0.22-1.17-0.58-2.24-1.1-3.19c1.57-0.18,3.09-0.59,4.54-1.24c1.46-0.64,2.69-1.37,3.71-2.18c0.95-0.76,1.8-1.55,2.55-2.38
		c0.02,0.2,0.05,0.39,0.1,0.58c0.28,1.19,0.86,2.22,1.74,3.09c0.88,0.88,1.88,1.36,3.02,1.47c1.32,0.1,2.63-0.08,3.96-0.54
		c1.33-0.46,2.5-1.07,3.52-1.84c1.02-0.76,1.95-1.59,2.8-2.49c0.85-0.9,1.52-1.72,2.01-2.46s0.78-1.31,0.89-1.72
		C185.58,60.18,185.59,59.68,185.43,59.37z M172.83,58.87c0.54-0.72,1.1-1.33,1.66-1.82c0.21-0.21,0.42-0.37,0.66-0.5l-0.04,0.12
		c0,0.02-0.01,0.09-0.04,0.19v0.04l-0.04,0.04c-0.1,0.39-0.23,0.73-0.39,1.05c-0.15,0.36-0.34,0.7-0.54,1
		c-0.18,0.31-0.39,0.59-0.62,0.85c-0.26,0.28-0.54,0.54-0.85,0.77c-0.34,0.26-0.63,0.44-0.89,0.54c-0.15,0.05-0.31,0.1-0.46,0.15
		C171.73,60.51,172.24,59.69,172.83,58.87z M164.87,48.48c0.13-0.32,0.26-0.61,0.37-0.88c0.2-0.4,0.66-0.8,0.95-0.8
		c0.41,0.01,0.48,0.5,0.47,0.79c-0.05,1.62-3.72,5.52-3.72,5.52L164.87,48.48z M151.03,86.16c-0.03-0.01-0.05-0.01-0.07-0.02
		c0.03,0,0.06,0,0.11,0.02H151.03z M155.47,76v0.15c0,0.13,0,0.21,0,0.23c0,0.21,0,0.43,0,0.66c0,0.75-0.04,1.48-0.12,2.2
		c-0.08,0.75-0.18,1.46-0.31,2.12c-0.15,0.59-0.35,1.17-0.58,1.74c-0.21,0.57-0.49,1.11-0.85,1.62c0,0.02-0.01,0.05-0.04,0.08
		c-0.02,0.05-0.05,0.08-0.08,0.08c-0.1,0.13-0.18,0.22-0.23,0.27c-0.21,0.21-0.43,0.39-0.66,0.54c-0.05,0.05-0.15,0.12-0.31,0.19
		c-0.05,0.02-0.09,0.05-0.12,0.08c-0.15,0.05-0.31,0.09-0.46,0.12c0.02-0.1,0.03-0.25,0.02-0.44c-0.01-0.19,0-0.34,0.02-0.44
		c0.05-0.75,0.18-1.64,0.39-2.67c0.1-0.46,0.22-0.98,0.35-1.55c0.02-0.05,0.07-0.18,0.12-0.39c0-0.05,0.01-0.09,0.02-0.12
		c0.01-0.02,0.02-0.07,0.02-0.12c0.1-0.36,0.18-0.64,0.23-0.85c0.57-1.98,1.29-4.24,2.17-6.76c0.05,0.18,0.08,0.28,0.08,0.31
		c0.13,0.62,0.22,1.29,0.27,2.01c0.02,0.18,0.04,0.36,0.04,0.54c0,0.02,0.01,0.1,0.04,0.23L155.47,76L155.47,76z"/>
</g>
</svg>
